<svg width="118" height="135" viewBox="0 0 118 135" fill="none" xmlns="http://www.w3.org/2000/svg">
<path d="M35.6107 4.66699L33.7143 8.4375H8.42857C3.76652 8.4375 0 12.208 0 16.875C0 21.542 3.76652 25.3125 8.42857 25.3125H109.571C114.233 25.3125 118 21.542 118 16.875C118 12.208 114.233 8.4375 109.571 8.4375H84.2857L82.3893 4.66699C80.967 1.79297 78.0433 0 74.8563 0H43.1438C39.9567 0 37.033 1.79297 35.6107 4.66699ZM109.571 33.75H8.42857L14.0125 123.135C14.4339 129.806 19.9652 135 26.629 135H91.371C98.0348 135 103.566 129.806 103.988 123.135L109.571 33.75Z" fill="black"/>
</svg>
