<svg width="147" height="118" viewBox="0 0 147 118" fill="none" xmlns="http://www.w3.org/2000/svg">
<path d="M110.25 11.0625C110.25 4.95508 105.312 0 99.225 0H77.175C71.0883 0 66.15 4.95508 66.15 11.0625V22.125H51.45V5.53125C51.45 2.46602 48.9923 0 45.9375 0C42.8827 0 40.425 2.46602 40.425 5.53125V22.125H25.725V5.53125C25.725 2.46602 23.2673 0 20.2125 0C17.1577 0 14.7 2.46602 14.7 5.53125V22.125H11.025C4.93828 22.125 0 27.0801 0 33.1875V55.3125V106.938C0 113.045 4.93828 118 11.025 118H69.825H77.175H99.225H135.975C142.062 118 147 113.045 147 106.938V55.3125C147 49.2051 142.062 44.25 135.975 44.25H110.25V11.0625ZM132.3 84.8125V92.1875C132.3 94.2156 130.646 95.875 128.625 95.875H121.275C119.254 95.875 117.6 94.2156 117.6 92.1875V84.8125C117.6 82.7844 119.254 81.125 121.275 81.125H128.625C130.646 81.125 132.3 82.7844 132.3 84.8125ZM55.125 95.875H47.775C45.7537 95.875 44.1 94.2156 44.1 92.1875V84.8125C44.1 82.7844 45.7537 81.125 47.775 81.125H55.125C57.1462 81.125 58.8 82.7844 58.8 84.8125V92.1875C58.8 94.2156 57.1462 95.875 55.125 95.875ZM29.4 92.1875C29.4 94.2156 27.7463 95.875 25.725 95.875H18.375C16.3538 95.875 14.7 94.2156 14.7 92.1875V84.8125C14.7 82.7844 16.3538 81.125 18.375 81.125H25.725C27.7463 81.125 29.4 82.7844 29.4 84.8125V92.1875ZM128.625 59C130.646 59 132.3 60.6594 132.3 62.6875V70.0625C132.3 72.0906 130.646 73.75 128.625 73.75H121.275C119.254 73.75 117.6 72.0906 117.6 70.0625V62.6875C117.6 60.6594 119.254 59 121.275 59H128.625ZM58.8 40.5625V47.9375C58.8 49.9656 57.1462 51.625 55.125 51.625H47.775C45.7537 51.625 44.1 49.9656 44.1 47.9375V40.5625C44.1 38.5344 45.7537 36.875 47.775 36.875H55.125C57.1462 36.875 58.8 38.5344 58.8 40.5625ZM25.725 36.875C27.7463 36.875 29.4 38.5344 29.4 40.5625V47.9375C29.4 49.9656 27.7463 51.625 25.725 51.625H18.375C16.3538 51.625 14.7 49.9656 14.7 47.9375V40.5625C14.7 38.5344 16.3538 36.875 18.375 36.875H25.725ZM58.8 70.0625C58.8 72.0906 57.1462 73.75 55.125 73.75H47.775C45.7537 73.75 44.1 72.0906 44.1 70.0625V62.6875C44.1 60.6594 45.7537 59 47.775 59H55.125C57.1462 59 58.8 60.6594 58.8 62.6875V70.0625ZM25.725 73.75H18.375C16.3538 73.75 14.7 72.0906 14.7 70.0625V62.6875C14.7 60.6594 16.3538 59 18.375 59H25.725C27.7463 59 29.4 60.6594 29.4 62.6875V70.0625C29.4 72.0906 27.7463 73.75 25.725 73.75ZM95.55 62.6875V70.0625C95.55 72.0906 93.8962 73.75 91.875 73.75H84.525C82.5037 73.75 80.85 72.0906 80.85 70.0625V62.6875C80.85 60.6594 82.5037 59 84.525 59H91.875C93.8962 59 95.55 60.6594 95.55 62.6875ZM91.875 14.75C93.8962 14.75 95.55 16.4094 95.55 18.4375V25.8125C95.55 27.8406 93.8962 29.5 91.875 29.5H84.525C82.5037 29.5 80.85 27.8406 80.85 25.8125V18.4375C80.85 16.4094 82.5037 14.75 84.525 14.75H91.875ZM95.55 40.5625V47.9375C95.55 49.9656 93.8962 51.625 91.875 51.625H84.525C82.5037 51.625 80.85 49.9656 80.85 47.9375V40.5625C80.85 38.5344 82.5037 36.875 84.525 36.875H91.875C93.8962 36.875 95.55 38.5344 95.55 40.5625Z" fill="black"/>
</svg>
