<svg width="101" height="118" viewBox="0 0 101 118" fill="none" xmlns="http://www.w3.org/2000/svg">
<path d="M58.7631 0C26.2922 0 0 26.4183 0 59C0 91.5817 26.2922 118 58.7631 118C74.6961 118 89.1305 111.626 99.7263 101.301C101.041 100.01 101.383 98.0085 100.541 96.3755C99.7 94.7424 97.8858 93.8205 96.0717 94.1366C93.495 94.5844 90.8658 94.8214 88.1577 94.8214C62.6806 94.8214 42.0149 74.0661 42.0149 48.4643C42.0149 31.133 51.4801 16.0406 65.4939 8.08616C67.0977 7.16429 67.9127 5.32054 67.5183 3.52946C67.124 1.73839 65.599 0.39509 63.7586 0.237054C62.1022 0.105358 60.4458 0.0263389 58.7631 0.0263389V0Z" fill="black"/>
</svg>
