<svg width="119" height="103" viewBox="0 0 119 103" fill="none" xmlns="http://www.w3.org/2000/svg">
<path d="M0 14.7143C0 6.59844 6.67051 0 14.875 0H104.125C112.329 0 119 6.59844 119 14.7143V88.2857C119 96.4016 112.329 103 104.125 103H14.875C6.67051 103 0 96.4016 0 88.2857V14.7143ZM11.1562 77.25V84.6071C11.1562 86.6304 12.8297 88.2857 14.875 88.2857H22.3125C24.3578 88.2857 26.0312 86.6304 26.0312 84.6071V77.25C26.0312 75.2268 24.3578 73.5714 22.3125 73.5714H14.875C12.8297 73.5714 11.1562 75.2268 11.1562 77.25ZM96.6875 73.5714C94.6422 73.5714 92.9688 75.2268 92.9688 77.25V84.6071C92.9688 86.6304 94.6422 88.2857 96.6875 88.2857H104.125C106.17 88.2857 107.844 86.6304 107.844 84.6071V77.25C107.844 75.2268 106.17 73.5714 104.125 73.5714H96.6875ZM11.1562 47.8214V55.1786C11.1562 57.2018 12.8297 58.8571 14.875 58.8571H22.3125C24.3578 58.8571 26.0312 57.2018 26.0312 55.1786V47.8214C26.0312 45.7982 24.3578 44.1429 22.3125 44.1429H14.875C12.8297 44.1429 11.1562 45.7982 11.1562 47.8214ZM96.6875 44.1429C94.6422 44.1429 92.9688 45.7982 92.9688 47.8214V55.1786C92.9688 57.2018 94.6422 58.8571 96.6875 58.8571H104.125C106.17 58.8571 107.844 57.2018 107.844 55.1786V47.8214C107.844 45.7982 106.17 44.1429 104.125 44.1429H96.6875ZM11.1562 18.3929V25.75C11.1562 27.7732 12.8297 29.4286 14.875 29.4286H22.3125C24.3578 29.4286 26.0312 27.7732 26.0312 25.75V18.3929C26.0312 16.3696 24.3578 14.7143 22.3125 14.7143H14.875C12.8297 14.7143 11.1562 16.3696 11.1562 18.3929ZM96.6875 14.7143C94.6422 14.7143 92.9688 16.3696 92.9688 18.3929V25.75C92.9688 27.7732 94.6422 29.4286 96.6875 29.4286H104.125C106.17 29.4286 107.844 27.7732 107.844 25.75V18.3929C107.844 16.3696 106.17 14.7143 104.125 14.7143H96.6875ZM37.1875 22.0714V36.7857C37.1875 40.8551 40.5111 44.1429 44.625 44.1429H74.375C78.4889 44.1429 81.8125 40.8551 81.8125 36.7857V22.0714C81.8125 18.002 78.4889 14.7143 74.375 14.7143H44.625C40.5111 14.7143 37.1875 18.002 37.1875 22.0714ZM44.625 58.8571C40.5111 58.8571 37.1875 62.1449 37.1875 66.2143V80.9286C37.1875 84.998 40.5111 88.2857 44.625 88.2857H74.375C78.4889 88.2857 81.8125 84.998 81.8125 80.9286V66.2143C81.8125 62.1449 78.4889 58.8571 74.375 58.8571H44.625Z" fill="black"/>
</svg>
