<svg width="118" height="103" viewBox="0 0 118 103" fill="none" xmlns="http://www.w3.org/2000/svg">
<path d="M0 36.7857C0 28.6699 6.61445 22.0714 14.75 22.0714C14.8652 22.0714 15.0035 22.0714 15.1187 22.0714C16.8242 13.6797 24.2684 7.35714 33.1875 7.35714C36.6445 7.35714 39.8711 8.29978 42.6137 9.93214C45.6789 4.04643 51.8785 0 59 0C66.1215 0 72.3211 4.04643 75.3863 9.93214C78.1289 8.29978 81.3555 7.35714 84.8125 7.35714C93.7316 7.35714 101.176 13.6797 102.881 22.0714C102.996 22.0714 103.135 22.0714 103.25 22.0714C111.386 22.0714 118 28.6699 118 36.7857C118 39.4757 117.286 41.9817 116.018 44.1429H1.98203C0.714453 41.9817 0 39.4757 0 36.7857ZM0 57.7996C0 54.3279 2.83477 51.5 6.31484 51.5H111.662C115.142 51.5 117.977 54.3279 117.977 57.7996C117.977 74.0083 107.744 87.8489 93.3859 93.2288L92.9941 96.5625C92.5332 100.241 89.3988 103 85.6652 103H32.3117C28.6012 103 25.4438 100.241 24.9828 96.5625L24.568 93.2518C10.2328 87.8489 0 74.0083 0 57.7996Z" fill="black"/>
</svg>
