<svg width="197" height="119" viewBox="0 0 197 119" fill="none" xmlns="http://www.w3.org/2000/svg">
<path d="M59.1 0C26.4719 0 0 26.651 0 59.5C0 92.349 26.4719 119 59.1 119H137.9C170.528 119 197 92.349 197 59.5C197 26.651 170.528 0 137.9 0H59.1ZM152.675 32.2292C155.94 32.2292 159.072 33.5352 161.381 35.8598C163.69 38.1845 164.988 41.3374 164.988 44.625C164.988 47.9126 163.69 51.0655 161.381 53.3902C159.072 55.7148 155.94 57.0208 152.675 57.0208C149.41 57.0208 146.278 55.7148 143.969 53.3902C141.66 51.0655 140.363 47.9126 140.363 44.625C140.363 41.3374 141.66 38.1845 143.969 35.8598C146.278 33.5352 149.41 32.2292 152.675 32.2292ZM120.663 74.375C120.663 71.0874 121.96 67.9345 124.269 65.6098C126.578 63.2852 129.71 61.9792 132.975 61.9792C136.24 61.9792 139.372 63.2852 141.681 65.6098C143.99 67.9345 145.288 71.0874 145.288 74.375C145.288 77.6626 143.99 80.8155 141.681 83.1402C139.372 85.4649 136.24 86.7708 132.975 86.7708C129.71 86.7708 126.578 85.4649 124.269 83.1402C121.96 80.8155 120.663 77.6626 120.663 74.375ZM51.7125 42.1458C51.7125 38.0242 55.0061 34.7083 59.1 34.7083C63.1939 34.7083 66.4875 38.0242 66.4875 42.1458V52.0625H76.3375C80.4314 52.0625 83.725 55.3784 83.725 59.5C83.725 63.6216 80.4314 66.9375 76.3375 66.9375H66.4875V76.8542C66.4875 80.9758 63.1939 84.2917 59.1 84.2917C55.0061 84.2917 51.7125 80.9758 51.7125 76.8542V66.9375H41.8625C37.7686 66.9375 34.475 63.6216 34.475 59.5C34.475 55.3784 37.7686 52.0625 41.8625 52.0625H51.7125V42.1458Z" fill="black"/>
</svg>
