<svg width="178" height="119" viewBox="0 0 178 119" fill="none" xmlns="http://www.w3.org/2000/svg">
<path d="M37.5641 59.5735C43.128 59.5735 48.4639 57.3613 52.3981 53.4235C56.3324 49.4858 58.5426 44.145 58.5426 38.5762C58.5426 33.0073 56.3324 27.6666 52.3981 23.7288C48.4639 19.791 43.128 17.5788 37.5641 17.5788C32.0003 17.5788 26.6643 19.791 22.7301 23.7288C18.7959 27.6666 16.5856 33.0073 16.5856 38.5762C16.5856 44.145 18.7959 49.4858 22.7301 53.4235C26.6643 57.3613 32.0003 59.5735 37.5641 59.5735ZM30.0741 67.4475C13.9305 67.4475 0.851761 80.5381 0.851761 96.6962C0.851761 99.3865 3.03156 101.568 5.71943 101.568H69.4088C72.0967 101.568 74.2765 99.3865 74.2765 96.6962C74.2765 80.5381 61.1977 67.4475 45.0541 67.4475H30.0741Z" fill="black"/>
<path d="M141.098 59.5735C146.662 59.5735 151.998 57.3613 155.932 53.4235C159.866 49.4858 162.077 44.145 162.077 38.5762C162.077 33.0073 159.866 27.6666 155.932 23.7288C151.998 19.791 146.662 17.5788 141.098 17.5788C135.534 17.5788 130.198 19.791 126.264 23.7288C122.33 27.6666 120.12 33.0073 120.12 38.5762C120.12 44.145 122.33 49.4858 126.264 53.4235C130.198 57.3613 135.534 59.5735 141.098 59.5735ZM133.608 67.4475C117.465 67.4475 104.386 80.5381 104.386 96.6962C104.386 99.3865 106.566 101.568 109.254 101.568H172.943C175.631 101.568 177.811 99.3865 177.811 96.6962C177.811 80.5381 164.732 67.4475 148.588 67.4475H133.608Z" fill="black"/>
<path d="M89.5953 59.8376C97.4407 59.8376 104.965 56.7211 110.512 51.1735C116.06 45.626 119.176 38.1019 119.176 30.2565C119.176 22.4111 116.06 14.887 110.512 9.33942C104.965 3.79187 97.4407 0.675293 89.5953 0.675293C81.7499 0.675293 74.2258 3.79187 68.6782 9.33942C63.1307 14.887 60.0141 22.4111 60.0141 30.2565C60.0141 38.1019 63.1307 45.626 68.6782 51.1735C74.2258 56.7211 81.7499 59.8376 89.5953 59.8376ZM79.0339 70.9306C56.2703 70.9306 37.8282 89.3726 37.8282 112.136C37.8282 115.926 40.9019 119 44.692 119H134.499C138.289 119 141.362 115.926 141.362 112.136C141.362 89.3726 122.92 70.9306 100.157 70.9306H79.0339Z" fill="black"/>
</svg>
