<svg width="197" height="119" viewBox="0 0 197 119" fill="none" xmlns="http://www.w3.org/2000/svg">
<path d="M0 19.8333C0 8.89401 8.83422 0 19.7 0H78.8H93.575H98.5H177.3C188.166 0 197 8.89401 197 19.8333V99.1667C197 110.106 188.166 119 177.3 119H98.5H93.575H78.8H19.7C8.83422 119 0 110.106 0 99.1667V19.8333ZM98.5 19.8333V99.1667H177.3V19.8333H98.5ZM54.883 34.6773C53.898 32.4461 51.6817 30.9896 49.25 30.9896C46.8183 30.9896 44.602 32.4461 43.617 34.6773L23.917 79.3023C22.5319 82.4323 23.9478 86.0891 27.0567 87.4836C30.1656 88.8781 33.7978 87.4526 35.183 84.3227L37.9225 78.0938H60.5775L63.317 84.3227C64.7022 87.4526 68.3344 88.8471 71.4433 87.4836C74.5522 86.12 75.9373 82.4323 74.583 79.3023L54.883 34.6773ZM49.25 52.4344L55.0984 65.6979H43.4016L49.25 52.4344ZM137.9 30.9896C141.286 30.9896 144.056 33.7786 144.056 37.1875V38.4271H157.6H162.525C165.911 38.4271 168.681 41.2161 168.681 44.625C168.681 48.0339 165.911 50.8229 162.525 50.8229H161.909L161.417 52.2174C158.677 59.7789 154.522 66.6586 149.228 72.4846C149.505 72.6706 149.782 72.8255 150.059 72.9805L155.876 76.4823C158.8 78.2487 159.724 82.0604 158 84.9734C156.276 87.8865 152.46 88.8471 149.566 87.1117L143.748 83.6099C142.363 82.7732 141.04 81.9055 139.716 80.9758C136.453 83.3 132.975 85.3143 129.25 86.9878L128.142 87.4836C125.033 88.8781 121.401 87.4526 120.016 84.3227C118.631 81.1927 120.047 77.5359 123.156 76.1414L124.264 75.6456C126.234 74.7469 128.142 73.7552 129.958 72.6086L126.203 68.8279C123.802 66.4107 123.802 62.475 126.203 60.0578C128.604 57.6406 132.513 57.6406 134.914 60.0578L139.408 64.5823L139.562 64.7372C143.379 60.6776 146.488 55.9672 148.735 50.7919L137.9 50.8229H115.738C112.352 50.8229 109.581 48.0339 109.581 44.625C109.581 41.2161 112.352 38.4271 115.738 38.4271H131.744V37.1875C131.744 33.7786 134.514 30.9896 137.9 30.9896Z" fill="black"/>
</svg>
