<svg width="118" height="118" viewBox="0 0 118 118" fill="none" xmlns="http://www.w3.org/2000/svg">
<path d="M86.585 4.54443C86.2393 2.70082 84.9949 1.1568 83.2665 0.442402C81.5381 -0.271996 79.5562 -0.0645902 78.0122 0.995484L59 14.0851L39.9878 0.972439C38.4438 -0.0876354 36.4619 -0.295041 34.7335 0.419357C33.0051 1.13375 31.7607 2.67778 31.415 4.52138L27.2439 27.2208L4.54443 31.415C2.70082 31.7607 1.1568 33.0051 0.442402 34.7335C-0.271996 36.4619 -0.0645902 38.4438 0.995484 39.9878L14.0851 59L0.972439 78.0122C-0.0876354 79.5562 -0.295041 81.5381 0.419357 83.2665C1.13375 84.9949 2.67778 86.2624 4.52138 86.585L27.2208 90.7561L31.392 113.456C31.7376 115.299 32.9821 116.843 34.7105 117.558C36.4389 118.272 38.4207 118.065 39.9647 117.005L59 103.915L78.0122 117.028C79.5562 118.088 81.5381 118.295 83.2665 117.581C84.9949 116.866 86.2393 115.322 86.585 113.479L90.7561 90.7792L113.456 86.608C115.299 86.2624 116.843 85.0179 117.558 83.2895C118.272 81.5611 118.065 79.5793 117.005 78.0353L103.915 59L117.028 39.9878C118.088 38.4438 118.295 36.4619 117.581 34.7335C116.866 33.0051 115.322 31.7607 113.479 31.415L90.7792 27.2439L86.585 4.54443ZM62.1341 25.3542L77.2517 14.9378L80.5702 32.9821C80.985 35.2405 82.7595 37.015 85.0179 37.4298L103.062 40.7483L92.6458 55.8659C91.3323 57.7556 91.3323 60.2444 92.6458 62.1341L103.062 77.2517L85.0179 80.5702C82.7595 80.985 80.985 82.7595 80.5702 85.0179L77.2517 103.062L62.1341 92.6458C60.2444 91.3323 57.7556 91.3323 55.8659 92.6458L40.7483 103.062L37.4298 85.0179C37.015 82.7595 35.2405 80.985 32.9821 80.5702L14.9378 77.2517L25.3542 62.1341C26.6677 60.2444 26.6677 57.7556 25.3542 55.8659L14.9378 40.7483L32.9821 37.4298C35.2405 37.015 37.015 35.2405 37.4298 32.9821L40.7483 14.9378L55.8659 25.3542C57.7556 26.6677 60.2444 26.6677 62.1341 25.3542ZM59 84.8105C65.8454 84.8105 72.4104 82.0912 77.2508 77.2508C82.0912 72.4104 84.8105 65.8454 84.8105 59C84.8105 52.1546 82.0912 45.5896 77.2508 40.7492C72.4104 35.9088 65.8454 33.1895 59 33.1895C52.1546 33.1895 45.5896 35.9088 40.7492 40.7492C35.9088 45.5896 33.1895 52.1546 33.1895 59C33.1895 65.8454 35.9088 72.4104 40.7492 77.2508C45.5896 82.0912 52.1546 84.8105 59 84.8105ZM44.2511 59C44.2511 55.0884 45.805 51.3369 48.571 48.571C51.3369 45.805 55.0884 44.2511 59 44.2511C62.9116 44.2511 66.6631 45.805 69.429 48.571C72.195 51.3369 73.7489 55.0884 73.7489 59C73.7489 62.9116 72.195 66.6631 69.429 69.429C66.6631 72.195 62.9116 73.7489 59 73.7489C55.0884 73.7489 51.3369 72.195 48.571 69.429C45.805 66.6631 44.2511 62.9116 44.2511 59Z" fill="black"/>
</svg>
