<svg width="108" height="119" viewBox="0 0 108 119" fill="none" xmlns="http://www.w3.org/2000/svg">
<path d="M29.6748 38.5052C29.6748 38.6027 29.6748 38.6514 29.6748 38.7001C29.6748 39.0411 29.7723 39.3822 29.9184 39.6745L30.9903 45.2286C33.1827 56.3856 42.9755 64.4244 54.3273 64.4244C65.6791 64.4244 75.4719 56.3368 77.6643 45.1799L80.9773 28.2252C81.9517 21.1121 79.808 13.9015 75.0334 8.49353C70.2101 3.1343 63.3893 0.0162048 56.2274 0.0162048H52.3298C45.1679 0.0162048 38.2983 3.1343 33.5725 8.54225C28.8466 13.9502 26.7029 21.1608 27.6773 28.4201L29.6748 38.5052ZM54.2786 59.7473C45.1679 59.7473 37.3239 53.2675 35.6187 44.3517L34.4494 38.2616C34.7905 35.3384 36.3982 28.5663 40.3933 26.1303C42.7806 24.6687 46.0449 24.8148 50.0886 26.52C60.0763 30.8074 67.8228 30.8561 72.841 30.0279C75.4232 32.7562 74.4975 36.5564 74.2539 37.3359C74.2052 37.5308 74.1564 37.9206 74.1564 38.1642C74.1564 38.2129 74.1564 38.2129 74.1564 38.2616L72.9872 44.4004C71.2332 53.2675 63.3893 59.7473 54.2786 59.7473ZM37.129 11.6603C40.9779 7.27553 46.4833 4.74207 52.3298 4.74207H56.2274C62.0251 4.74207 67.5792 7.27553 71.4281 11.6603C75.1308 15.8503 76.8361 21.4044 76.3001 26.8611C75.9104 26.4226 75.4719 26.0328 74.9847 25.6431C74.4488 25.2046 73.718 25.0584 73.0359 25.2046C68.7485 26.1303 61.5866 26.3252 51.94 22.1839C46.3859 19.8454 41.66 19.7966 37.9086 22.0865C35.4238 23.5968 33.7186 25.9354 32.5006 28.3714L32.3545 27.6406C31.5749 21.8916 33.3289 16.0452 37.129 11.6603Z" fill="black"/>
<path d="M107.578 115.435L100.563 82.4022C99.9781 79.6738 97.9806 77.384 95.3497 76.4583L74.7898 69.1503C73.9128 68.8579 72.9871 69.0528 72.3538 69.6862L54.2785 87.7614L36.2033 69.6862C35.5699 69.0528 34.5955 68.8092 33.7673 69.1503L13.2073 76.4583C10.5765 77.384 8.57892 79.6738 7.99428 82.4022L0.978558 115.483C0.832398 116.165 1.02728 116.896 1.46576 117.481C1.90424 118.017 2.58633 118.358 3.31713 118.358H105.337C106.068 118.358 106.702 118.017 107.189 117.481C107.579 116.896 107.725 116.165 107.578 115.435ZM6.19163 113.583L12.6227 83.3766C12.8663 82.2073 13.6945 81.2816 14.7664 80.8919L33.9135 74.071L52.5733 92.7309C53.499 93.6566 55.0093 93.6566 55.935 92.7309L74.5949 74.071L93.7419 80.8919C94.8625 81.2816 95.642 82.2073 95.9344 83.3766L102.365 113.583H6.19163Z" fill="black"/>
</svg>
