<svg width="118" height="118" viewBox="0 0 118 118" fill="none" xmlns="http://www.w3.org/2000/svg">
<path d="M68.0769 9.07692C68.0769 4.05625 64.0207 0 59 0C53.9793 0 49.9231 4.05625 49.9231 9.07692V49.9231H9.07692C4.05625 49.9231 0 53.9793 0 59C0 64.0207 4.05625 68.0769 9.07692 68.0769H49.9231V108.923C49.9231 113.944 53.9793 118 59 118C64.0207 118 68.0769 113.944 68.0769 108.923V68.0769H108.923C113.944 68.0769 118 64.0207 118 59C118 53.9793 113.944 49.9231 108.923 49.9231H68.0769V9.07692Z" fill="black"/>
</svg>
