<svg width="75" height="119" viewBox="0 0 75 119" fill="none" xmlns="http://www.w3.org/2000/svg">
<path d="M16.6667 34.019C16.6667 24.6445 24.1406 17.0228 33.3333 17.0228H41.6667C50.8594 17.0228 58.3333 24.6445 58.3333 34.019V34.975C58.3333 40.7643 55.4427 46.1553 50.6771 49.2624L39.6875 56.4593C33.125 60.7614 29.1667 68.1707 29.1667 76.1111V76.4829C29.1667 81.1834 32.8906 84.981 37.5 84.981C42.1094 84.981 45.8333 81.1834 45.8333 76.4829V76.1111C45.8333 73.9335 46.9271 71.9152 48.6979 70.7467L59.6875 63.5499C69.2187 57.2825 75 46.5271 75 34.9485V33.9924C75 15.2169 60.0781 0 41.6667 0H33.3333C14.9219 0.0265566 0 15.2435 0 34.019C0 38.7195 3.72396 42.5171 8.33333 42.5171C12.9427 42.5171 16.6667 38.7195 16.6667 34.019ZM37.5 119C40.2627 119 42.9122 117.881 44.8657 115.889C46.8192 113.897 47.9167 111.195 47.9167 108.377C47.9167 105.56 46.8192 102.858 44.8657 100.866C42.9122 98.8739 40.2627 97.7547 37.5 97.7547C34.7373 97.7547 32.0878 98.8739 30.1343 100.866C28.1808 102.858 27.0833 105.56 27.0833 108.377C27.0833 111.195 28.1808 113.897 30.1343 115.889C32.0878 117.881 34.7373 119 37.5 119Z" fill="black"/>
</svg>
