<svg width="119" height="119" viewBox="0 0 119 119" fill="none" xmlns="http://www.w3.org/2000/svg">
<path d="M54.0381 1.2029C57.5012 -0.400967 61.4988 -0.400967 64.9619 1.2029L115.769 24.6798C117.745 25.5863 119 27.5621 119 29.7471C119 31.9321 117.745 33.9079 115.769 34.8144L64.9619 58.2913C61.4988 59.8952 57.5012 59.8952 54.0381 58.2913L3.23066 34.8144C1.25508 33.8846 0 31.9088 0 29.7471C0 27.5854 1.25508 25.5863 3.23066 24.6798L54.0381 1.2029ZM103.404 48.7146L115.769 54.4327C117.745 55.3392 119 57.315 119 59.5C119 61.685 117.745 63.6608 115.769 64.5673L64.9619 88.0442C61.4988 89.6481 57.5012 89.6481 54.0381 88.0442L3.23066 64.5673C1.25508 63.6375 0 61.6617 0 59.5C0 57.3383 1.25508 55.3392 3.23066 54.4327L15.5955 48.7146L50.9236 65.0322C56.3623 67.5426 62.6377 67.5426 68.0764 65.0322L103.404 48.7146ZM68.0764 94.7851L103.404 78.4675L115.769 84.1856C117.745 85.0921 119 87.0679 119 89.2529C119 91.4379 117.745 93.4137 115.769 94.3202L64.9619 117.797C61.4988 119.401 57.5012 119.401 54.0381 117.797L3.23066 94.3202C1.25508 93.3904 0 91.4146 0 89.2529C0 87.0912 1.25508 85.0921 3.23066 84.1856L15.5955 78.4675L50.9236 94.7851C56.3623 97.2955 62.6377 97.2955 68.0764 94.7851Z" fill="black"/>
</svg>
