<svg width="230" height="211" viewBox="0 0 230 211" fill="none" xmlns="http://www.w3.org/2000/svg">
<path d="M190.119 153.041C138.22 162.997 114.477 195.495 109.093 210.5C101.679 171.735 141.839 133.093 162.846 118.618C166.023 103.578 165.758 98.0527 165.229 97.17L188.53 94.5221L229.837 123.914C189.166 129.21 169.818 137.065 165.229 140.331L190.119 153.041Z" fill="#0D1B2A"/>
<path d="M109.888 168.663L105.121 186.669C90.0814 177.137 54.1936 162.22 38.1297 155.953L58.7833 138.212C30.3979 127.197 7.76716 124.796 0 124.973C3.81297 123.278 24.5372 104.672 34.4227 95.5813C37.3883 96.005 48.7213 97.5231 54.0171 98.2292C67.5743 132.546 96.913 159.484 109.888 168.663Z" fill="#0D1B2A"/>
<path d="M106.445 101.407C87.1688 103.525 71.758 99.6414 66.4622 97.4348C66.4622 101.142 66.4622 117.824 85.5271 118.353C100.779 118.777 105.828 107.232 106.445 101.407Z" fill="#0D1B2A"/>
<path d="M154.667 97.6281C136.138 103.35 120.271 102.449 114.654 101.282C115.354 104.923 118.506 121.304 137.328 118.222C152.385 115.756 155.161 103.465 154.667 97.6281Z" fill="#0D1B2A"/>
<path d="M2.91733 73.2542C9.90777 63.3316 45.725 55.3385 62.7598 52.5822C71.1448 54.6494 92.2043 58.9905 109.363 59.8174C126.521 60.6443 149.699 55.3385 159.143 52.5822C183.327 56.7166 228.2 67.5694 214.219 77.9054C196.743 90.8254 124.72 94.9598 109.363 94.9598C95.3288 97.5438 -5.82072 85.6574 2.91733 73.2542Z" fill="#0D1B2A"/>
<path d="M151.464 44.0623C138.754 48.6102 118.101 49.0581 109.363 48.7135C95.5936 48.9669 75.3814 45.7183 66.9964 44.0623C70.4386 24.424 77.1114 7.34826 83.6781 3.00714C90.2449 -1.33398 103.537 1.97355 109.363 7.14155C112.893 1.19835 122.126 -3.19446 130.811 3.00714C139.496 9.20874 148.816 25.1991 151.464 44.0623Z" fill="#0D1B2A"/>
</svg>
