<svg width="230" height="211" viewBox="0 0 230 211" fill="none" xmlns="http://www.w3.org/2000/svg">
<path d="M190.119 153.291C138.22 163.247 114.477 195.745 109.093 210.75C101.679 171.985 141.839 133.343 162.846 118.868C166.023 103.828 165.758 98.3027 165.229 97.42L188.53 94.7721L229.837 124.164C189.166 129.46 169.818 137.315 165.229 140.581L190.119 153.291Z" fill="#E0E1DD"/>
<path d="M109.888 168.913L105.121 186.919C90.0814 177.387 54.1936 162.47 38.1297 156.203L58.7833 138.462C30.3979 127.447 7.76716 125.046 0 125.223C3.81297 123.528 24.5372 104.922 34.4227 95.8313C37.3883 96.255 48.7213 97.7731 54.0171 98.4792C67.5743 132.796 96.913 159.734 109.888 168.913Z" fill="#E0E1DD"/>
<path d="M106.445 101.657C87.1688 103.775 71.758 99.8914 66.4622 97.6848C66.4622 101.392 66.4622 118.074 85.5271 118.603C100.779 119.027 105.828 107.482 106.445 101.657Z" fill="#E0E1DD"/>
<path d="M154.667 97.8781C136.138 103.6 120.271 102.699 114.654 101.532C115.354 105.173 118.506 121.554 137.328 118.472C152.385 116.006 155.161 103.715 154.667 97.8781Z" fill="#E0E1DD"/>
<path d="M2.91733 73.5042C9.90777 63.5816 45.725 55.5885 62.7598 52.8322C71.1448 54.8994 92.2043 59.2405 109.363 60.0674C126.521 60.8943 149.699 55.5885 159.143 52.8322C183.327 56.9666 228.2 67.8194 214.219 78.1554C196.743 91.0754 124.72 95.2098 109.363 95.2098C95.3288 97.7938 -5.82072 85.9074 2.91733 73.5042Z" fill="#E0E1DD"/>
<path d="M151.464 44.3123C138.754 48.8602 118.101 49.3081 109.363 48.9635C95.5936 49.2169 75.3814 45.9683 66.9964 44.3123C70.4386 24.674 77.1114 7.59826 83.6781 3.25714C90.2449 -1.08398 103.537 2.22355 109.363 7.39155C112.893 1.44835 122.126 -2.94446 130.811 3.25714C139.496 9.45874 148.816 25.4491 151.464 44.3123Z" fill="#E0E1DD"/>
</svg>
