<svg width="119" height="119" viewBox="0 0 119 119" fill="none" xmlns="http://www.w3.org/2000/svg">
<path d="M55.4647 3.69765C55.4647 1.65549 57.1202 0 59.1624 0C61.2045 0 62.86 1.65549 62.86 3.69765V27.1161C62.86 29.1582 61.2045 30.8137 59.1624 30.8137C57.1202 30.8137 55.4647 29.1582 55.4647 27.1161V3.69765Z" fill="black"/>
<path d="M59.1623 5.00001C59.1623 2.23858 61.405 -0.0219601 64.1566 0.211095C76.0512 1.21858 87.4068 5.80695 96.6945 13.4292C107.275 22.1125 114.518 34.1958 117.188 47.6203C119.858 61.0449 117.791 74.98 111.339 87.0513C104.887 99.1226 94.4484 108.583 81.8028 113.821C69.1572 119.059 55.0866 119.75 41.9884 115.777C28.8903 111.804 17.575 103.412 9.97066 92.0312C2.36628 80.6505 -1.05673 66.9851 0.284879 53.3634C1.46256 41.4062 6.24768 30.1322 13.9461 21.009C15.7269 18.8985 18.9112 18.9112 20.8638 20.8638L21.6867 21.6867C23.6393 23.6394 23.6159 26.7904 21.8769 28.9355C15.9834 36.2051 12.3193 45.072 11.3949 54.4577C10.3065 65.5089 13.0836 76.5957 19.253 85.8289C25.4225 95.0622 34.6026 101.871 45.2291 105.094C55.8557 108.318 67.2712 107.757 77.5306 103.507C87.79 99.2576 96.2586 91.5822 101.493 81.7887C106.728 71.9952 108.405 60.6896 106.239 49.7983C104.072 38.907 98.1964 29.1037 89.6123 22.059C82.322 16.076 73.4613 12.397 64.1535 11.4239C61.4071 11.1368 59.1623 8.92524 59.1623 6.16382V5.00001Z" fill="black"/>
<path d="M38.9627 41.5464C38.0927 40.6764 38.0927 39.2657 38.9627 38.3956C39.8328 37.5255 41.2435 37.5255 42.1136 38.3956L60.7513 57.0333C61.6214 57.9034 61.6214 59.3141 60.7513 60.1842C59.8813 61.0543 58.4706 61.0543 57.6005 60.1842L38.9627 41.5464Z" fill="black"/>
</svg>
