<svg width="71" height="118" viewBox="0 0 71 118" fill="none" xmlns="http://www.w3.org/2000/svg">
<path d="M62.4556 52.4444C61.9191 52.4444 60.5574 52.628 59.1576 53.0607C58.8003 48.3236 54.8089 44.5778 49.9567 44.5778C47.7725 44.5778 45.7623 45.3369 44.1805 46.6034C43.0113 43.053 39.9202 40.6444 36.0922 40.6444C33.5573 40.6444 31.302 41.6815 29.6938 43.3755L29.2878 32.0803C33.788 28.8654 36.7275 23.6197 36.7275 17.7C36.7275 7.94009 28.7447 0 18.9322 0C9.11977 0 1.13692 7.94009 1.13692 17.7C1.13692 24.4863 5.00971 30.368 10.662 33.3337L11.2578 61.0414C10.1928 61.617 8.57668 62.6698 6.50847 64.5381C-0.647883 71.0071 -2.99027 86.6539 5.09144 98.7647C14.088 112.246 24.6294 118 40.342 118C56.9892 118 62.5584 109.69 66.8372 101.178C70.9525 92.9919 71 61.6406 71 60.3111C71.0013 56.1195 67.0086 52.4444 62.4556 52.4444ZM5.09275 17.7C5.09275 10.1087 11.3013 3.93333 18.9335 3.93333C26.5658 3.93333 32.7743 10.1087 32.7743 17.7C32.7743 21.282 31.3718 24.527 29.1059 26.9761L28.8198 19.0111C28.8198 13.4048 24.8508 9.17778 19.5874 9.17778C14.3239 9.17778 10.3549 13.4048 10.3549 19.0531L10.5605 28.6124C7.2506 26.0964 5.09275 22.1538 5.09275 17.7ZM63.3006 99.4189C59.2722 107.432 54.7654 114.067 40.3433 114.067C25.9278 114.067 16.6703 109.003 8.38818 96.5895C3.56236 89.3575 1.46778 74.4108 9.16986 67.4475C10.0016 66.6962 10.7358 66.1075 11.358 65.65L11.6533 79.3629C11.677 80.4485 12.547 81.3387 13.6727 81.2876C14.7642 81.264 15.6302 80.3659 15.6078 79.279L14.3107 19.0111C14.3107 15.538 16.4804 13.1111 19.5887 13.1111C22.6969 13.1111 24.8666 15.538 24.868 19.0819L26.1861 55.793C26.2217 56.8013 27.0205 57.6194 28.0316 57.6849C29.0215 57.7466 29.9416 57.0451 30.1116 56.05L31.1121 50.15C31.1306 50.0412 31.1398 49.9324 31.1398 49.8222C31.1398 46.8329 33.27 44.5778 36.0948 44.5778C39.2808 44.5778 40.7322 47.2957 40.7322 49.8222V53.7556C40.7322 54.8425 41.618 55.7222 42.7094 55.7222C43.8009 55.7222 44.6867 54.8425 44.6867 53.7556C44.6867 50.8632 47.0515 48.5111 49.9594 48.5111C52.8672 48.5111 55.232 50.8632 55.232 53.7556V62.2778C55.232 63.3634 56.1179 64.2444 57.2093 64.2444C58.3007 64.2444 59.1866 63.3634 59.1866 62.2778V57.2693C59.9775 56.8865 61.5276 56.3765 62.4583 56.3765C64.8178 56.3765 67.0481 58.2881 67.0481 60.3098C67.0468 69.1165 66.3719 93.3092 63.3006 99.4189Z" fill="black"/>
</svg>
