<svg width="103" height="119" viewBox="0 0 103 119" fill="none" xmlns="http://www.w3.org/2000/svg">
<path d="M51.5 59.5C59.3049 59.5 66.7902 56.3656 72.3091 50.7864C77.8281 45.2072 80.9286 37.6402 80.9286 29.75C80.9286 21.8598 77.8281 14.2928 72.3091 8.71357C66.7902 3.13437 59.3049 0 51.5 0C43.6951 0 36.2098 3.13437 30.6909 8.71357C25.1719 14.2928 22.0714 21.8598 22.0714 29.75C22.0714 37.6402 25.1719 45.2072 30.6909 50.7864C36.2098 56.3656 43.6951 59.5 51.5 59.5ZM40.9931 70.6562C18.3469 70.6562 0 89.2035 0 112.097C0 115.909 3.05781 119 6.82835 119H96.1716C99.9422 119 103 115.909 103 112.097C103 89.2035 84.6531 70.6562 62.0069 70.6562H40.9931Z" fill="black"/>
</svg>
