<svg width="89" height="119" viewBox="0 0 89 119" fill="none" xmlns="http://www.w3.org/2000/svg">
<path d="M1.4898 99.6964L19.3572 67.4974C23.3496 77.4204 33.0231 89.4902 45.275 89.2471C57.527 89.0041 67.4619 77.2179 70.2107 67.4974C83.8763 90.3405 87.8163 99.6964 88.0781 101.519C89.1776 112.94 84.4784 117.213 81.9914 117.922C57.6446 118.226 8.63678 118.651 7.38017 117.922C5.80941 117.011 2.66787 113.67 1.4898 110.024C0.547343 107.108 1.09711 101.924 1.4898 99.6964Z" fill="black"/>
<path d="M76.9653 32.4412C76.9653 50.358 62.4774 64.8825 44.6058 64.8825C26.7341 64.8825 12.2462 50.358 12.2462 32.4412C12.2462 14.5244 26.7341 0 44.6058 0C62.4774 0 76.9653 14.5244 76.9653 32.4412Z" fill="black"/>
<path d="M29.3521 22.0633C24.8196 32.4521 20.1999 36.056 18.4566 36.5593C19.8367 44.4113 27.1294 60.0549 45.2595 59.8133C63.3895 59.5717 69.8106 36.962 70.7548 25.6873C51.0559 39.4585 34.9451 29.0093 29.3521 22.0633Z" fill="white"/>
</svg>
